<?xml version="1.0" encoding="UTF-8" standalone="no"?>
<!DOCTYPE svg PUBLIC "-//W3C//DTD SVG 1.1//EN" "http://www.w3.org/Graphics/SVG/1.1/DTD/svg11.dtd">
<svg version="1.1" xmlns="http://www.w3.org/2000/svg" xmlns:xlink="http://www.w3.org/1999/xlink" preserveAspectRatio="xMidYMid meet" viewBox="0 0 640 640" width="640" height="640"><defs><path d="M438.81 13.15C403.31 -15.15 349.49 14.55 312.37 24.99C286.15 32.41 259.94 39.14 233.49 45.17C219.8 48.42 206.34 51.43 192.66 54.22C181.75 56.54 169.46 56.77 160.87 63.96C148.34 74.63 140.92 99.23 159.02 108.04C163.89 110.36 169.46 110.59 174.79 110.36C217.48 109.9 260.17 104.33 301.7 93.66C311.67 91.11 322.11 88.09 332.32 88.79C342.76 89.48 353.43 94.35 358.07 103.63C360.39 108.27 360.86 113.61 361.32 118.71C368.74 202.7 362.02 287.15 362.02 371.36C362.02 455.58 368.74 541.65 401.69 619.14C404.24 624.94 407.02 630.97 411.66 635.14C416.54 639.32 423.96 640.94 429.3 637.46C435.33 633.52 436.02 625.17 436.26 618.21C439.27 486.67 430.69 354.89 439.97 223.58C442.98 182.28 447.62 141.22 454.35 100.39C456.9 85.31 459.69 69.76 458.3 54.22C456.9 38.67 450.87 22.9 438.81 13.15Z" id="auVlkhJ3i"></path><path d="M325.59 214.99C325.59 208.96 323.74 203.63 319.79 198.99C318.4 197.36 317.01 195.97 315.62 194.58C304.48 183.44 287.78 180.66 272.7 184.37C258.08 188.08 245.55 197.59 235.58 208.73C215.86 230.54 204.72 259.54 204.49 288.77C209.82 283.67 214.93 278.56 220.26 273.23C232.56 261.16 246.02 248.4 262.95 245.39C278.96 242.6 296.36 248.63 310.51 241.21C319.79 236.34 325.59 225.67 325.59 214.99Z" id="e1VWM6YeON"></path><path d="M333.48 288.54C328.84 284.83 319.79 282.97 313.76 282.97C293.81 283.2 273.39 292.71 262.49 310.11C256.69 319.16 257.85 329.14 262.72 338.42C266.66 346.07 271.07 353.5 275.94 360.69C278.5 364.17 281.05 367.65 283.6 371.13C286.15 374.38 289.86 379.25 292.42 383.19C291.95 382.5 292.42 379.95 292.42 379.25C292.42 375.54 292.88 371.59 293.58 367.88C295.9 356.05 301.46 343.29 310.51 334.94C317.24 328.67 326.06 325.89 333.25 320.32C335.1 318.93 336.73 317.31 337.66 315.45C346.01 301.07 338.82 292.48 333.94 288.77C333.85 288.72 333.71 288.54 333.48 288.54Z" id="d2c2zHj1nj"></path></defs><g><g><g><use xlink:href="#auVlkhJ3i" opacity="1" fill="#ff0000" fill-opacity="1"></use><g><use xlink:href="#auVlkhJ3i" opacity="1" fill-opacity="0" stroke="#000000" stroke-width="1" stroke-opacity="0"></use></g></g><g><use xlink:href="#e1VWM6YeON" opacity="1" fill="#ff0000" fill-opacity="1"></use><g><use xlink:href="#e1VWM6YeON" opacity="1" fill-opacity="0" stroke="#000000" stroke-width="1" stroke-opacity="0"></use></g></g><g><use xlink:href="#d2c2zHj1nj" opacity="1" fill="#ff0000" fill-opacity="1"></use><g><use xlink:href="#d2c2zHj1nj" opacity="1" fill-opacity="0" stroke="#000000" stroke-width="1" stroke-opacity="0"></use></g></g></g></g></svg>